<COLLADA xmlns="http://www.collada.org/2005/11/COLLADASchema" version="1.4.1">
  <asset>
    <contributor/>
    <created>2025-02-17T19:09:10.106993</created>
    <modified>2025-02-17T19:09:10.106996</modified>
    <unit name="meter" meter="1.0"/>
    <up_axis>Z_UP</up_axis>
  </asset>
  <library_effects>
    <effect id="effect_Body_shape001" name="effect_Body_shape001">
      <profile_COMMON>
        <technique sid="common">
          <phong>
            <emission>
              <color>0.0 0.0 0.0 1.0</color>
            </emission>
            <ambient>
              <color>0.0 0.0 0.0 1.0</color>
            </ambient>
            <diffuse>
              <color>0.67843097448349 0.7098039984703064 0.7411760091781616 1.0</color>
            </diffuse>
            <specular>
              <color>1 1 1 1.0</color>
            </specular>
            <shininess>
              <float>0.0</float>
            </shininess>
            <reflective>
              <color>0.0 0.0 0.0 1.0</color>
            </reflective>
            <reflectivity>
              <float>0.0</float>
            </reflectivity>
            <transparent>
              <color>0.0 0.0 0.0 1.0</color>
            </transparent>
            <transparency>
              <float>1.0</float>
            </transparency>
          </phong>
        </technique>
        <extra>
          <technique profile="GOOGLEEARTH">
            <double_sided>0</double_sided>
          </technique>
        </extra>
      </profile_COMMON>
    </effect>
  </library_effects>
  <library_geometries>
    <geometry id="geometry0" name="Body_shape001">
      <mesh>
        <source id="cubeverts-array0">
          <float_array count="576" id="cubeverts-array0-array">-0.4 0.132 0.162 -0.4 0.1295466 0.1620602 -0.4 0.14 0.22 -0.4 0.08206023 0.2095466 -0.4 0.082 0.212 -0.4 0.1270991 0.1622408 -0.4 0.08224076 0.2070991 -0.4 0.1246635 0.1625412 -0.4 0.08254118 0.2046635 -0.4 0.1222455 0.1629607 -0.4 0.08296074 0.2022455 -0.4 0.119851 0.1634984 -0.4 0.08349844 0.199851 -0.4 0.1174858 0.164153 -0.4 0.08415298 0.1974858 -0.4 0.1151555 0.1649228 -0.4 0.0849228 0.1951555 -0.4 0.1128658 0.165806 -0.4 0.08580602 0.1928658 -0.4 0.1106222 0.1668005 -0.4 0.08680054 0.1906222 -0.4 0.1084302 0.1679039 -0.4 0.08790394 0.1884302 -0.4 0.1062949 0.1691136 -0.4 0.08911357 0.1862949 -0.4 0.1042215 0.1704265 -0.4 0.09042652 0.1842215 -0.4 0.102215 0.1718396 -0.4 0.09183962 0.182215 -0.4 0.1002803 0.1733495 -0.4 0.09334948 0.1802803 -0.4 0.09842205 0.1749524 -0.4 0.09495245 0.1784221 -0.4 0.09664466 0.1766447 -0.4 0.14 0 -0.4 0.132 0.008 -0.4 -0.132 0.212 -0.4 -0.14 0.22 -0.4 -0.132 0.008 -0.4 -0.14 0 0 0.143705 0.22 0 0.143705 0 -0.008 0.1436309 0.212 -0.008 0.1436309 0.008 -0.392 0.1400741 0.212 -0.392 0.1400741 0.008 -0.3731237 -0.1174711 0 -0.3684796 -0.1239851 0 -0.374231 0.1174711 0 -0.3695931 0.1239896 0 -0.2764536 0.047904 0 -0.275413 -0.04781025 0 -0.2718158 0.05442249 0 -0.270769 -0.0543243 0 -0.1292748 -0.05439026 0 -0.1246871 -0.04783641 0 -0.03096697 -0.1232057 0 -0.02637927 -0.1166519 0 0 -0.14 0 -0.123532 0.04790245 0 -0.1281699 0.05442087 0 -0.02575573 0.1174711 0 -0.03039364 0.1239895 0 0 -0.14 0.22 -0.392 -0.14 0.212 -0.392 -0.14 0.008 -0.008 -0.14 0.212 -0.008 -0.14 0.008 -0.392 0.132 0.162 -0.392 0.1295466 0.1620602 -0.392 0.1270991 0.1622408 -0.392 0.1246635 0.1625412 -0.392 0.1222455 0.1629607 -0.392 0.119851 0.1634984 -0.392 0.1174858 0.164153 -0.392 0.1151555 0.1649228 -0.392 0.1128658 0.165806 -0.392 0.1106222 0.1668005 -0.392 0.1084302 0.1679039 -0.392 0.1062949 0.1691136 -0.392 0.1042215 0.1704265 -0.392 0.102215 0.1718396 -0.392 0.1002803 0.1733495 -0.392 0.09842205 0.1749524 -0.392 0.09664466 0.1766447 -0.392 0.09495245 0.1784221 -0.392 0.09334948 0.1802803 -0.392 0.09183962 0.182215 -0.392 0.09042652 0.1842215 -0.392 0.08911357 0.1862949 -0.392 0.08790394 0.1884302 -0.392 0.08680054 0.1906222 -0.392 0.08580602 0.1928658 -0.392 0.0849228 0.1951555 -0.392 0.08415298 0.1974858 -0.392 0.08349844 0.199851 -0.392 0.08296074 0.2022455 -0.392 0.08254118 0.2046635 -0.392 0.08224076 0.2070991 -0.392 0.08206023 0.2095466 -0.392 0.082 0.212 -0.008 0.082 0.212 0 0.082 0.212 0 -0.132 0.212 -0.008 -0.132 0.212 -0.392 -0.132 0.212 -0.392 -0.132 0.008 -0.392 0.132 0.008 -0.008 -0.132 0.008 -0.008 0.132 0.008 0 0.132 0.008 0 -0.132 0.008 0 0.09842205 0.1749524 0 0.09664466 0.1766447 0 0.09495245 0.1784221 0 0.09334948 0.1802803 0 0.09183962 0.182215 0 0.09042652 0.1842215 0 0.08911357 0.1862949 0 0.08790394 0.1884302 0 0.08680054 0.1906222 0 0.08580602 0.1928658 0 0.0849228 0.1951555 0 0.08415298 0.1974858 0 0.08349844 0.199851 0 0.08296074 0.2022455 0 0.08254118 0.2046635 0 0.08224076 0.2070991 0 0.08206023 0.2095466 0 0.1002803 0.1733495 0 0.102215 0.1718396 0 0.1042215 0.1704265 0 0.1062949 0.1691136 0 0.1084302 0.1679039 0 0.1106222 0.1668005 0 0.1128658 0.165806 0 0.1151555 0.1649228 0 0.1174858 0.164153 0 0.119851 0.1634984 0 0.1222455 0.1629607 0 0.1246635 0.1625412 0 0.1270991 0.1622408 0 0.1295466 0.1620602 0 0.132 0.162 -0.008 0.132 0.162 -0.008 0.1295466 0.1620602 -0.008 0.1270991 0.1622408 -0.008 0.1246635 0.1625412 -0.008 0.1222455 0.1629607 -0.008 0.119851 0.1634984 -0.008 0.1174858 0.164153 -0.008 0.1151555 0.1649228 -0.008 0.1128658 0.165806 -0.008 0.1106222 0.1668005 -0.008 0.1084302 0.1679039 -0.008 0.1062949 0.1691136 -0.008 0.1042215 0.1704265 -0.008 0.102215 0.1718396 -0.008 0.1002803 0.1733495 -0.008 0.09842205 0.1749524 -0.008 0.09664466 0.1766447 -0.008 0.09495245 0.1784221 -0.008 0.09334948 0.1802803 -0.008 0.09183962 0.182215 -0.008 0.09042652 0.1842215 -0.008 0.08911357 0.1862949 -0.008 0.08790394 0.1884302 -0.008 0.08680054 0.1906222 -0.008 0.08580602 0.1928658 -0.008 0.0849228 0.1951555 -0.008 0.08415298 0.1974858 -0.008 0.08349844 0.199851 -0.008 0.08296074 0.2022455 -0.008 0.08254118 0.2046635 -0.008 0.08224076 0.2070991 -0.008 0.08206023 0.2095466 -0.270769 -0.0543243 -0.1 -0.275413 -0.04781025 -0.1 -0.3731237 -0.1174711 -0.1 -0.3684796 -0.1239851 -0.1 -0.03096697 -0.1232057 -0.1 -0.1292748 -0.05439026 -0.1 -0.02637927 -0.1166519 -0.1 -0.1246871 -0.04783641 -0.1 -0.2718158 0.05442249 -0.1 -0.3695931 0.1239896 -0.1 -0.374231 0.1174711 -0.1 -0.2764536 0.047904 -0.1 -0.1281699 0.05442087 -0.1 -0.123532 0.04790245 -0.1 -0.02575573 0.1174711 -0.1 -0.03039364 0.1239895 -0.1</float_array>
          <technique_common>
            <accessor count="192" source="#cubeverts-array0-array" stride="3">
              <param type="float" name="X"/>
              <param type="float" name="Y"/>
              <param type="float" name="Z"/>
            </accessor>
          </technique_common>
        </source>
        <source id="cubenormals-array0">
          <float_array count="1176" id="cubenormals-array0-array">-1 0 0 -1 0 0 -1 0 0 -1 0 0 -1 0 0 -1 0 0 -1 0 0 -1 0 0 -1 0 0 -1 0 0 -1 0 0 -1 0 0 -1 0 0 -1 0 0 -1 0 0 -1 0 0 -1 0 0 -1 0 0 -1 0 0 -1 0 0 -1 0 0 -1 0 0 -1 0 0 -1 0 0 -1 0 0 -1 0 0 -1 0 0 -1 0 0 -1 0 0 -1 0 0 -1 0 0 -1 0 0 -1 0 0 -1 0 0 -1 0 0 -1 -0 -0 -1 -0 0 -1 0 -0 -1 0 0 -1 -0 0 -0.009261688 0.9999571 0 -0.009261688 0.9999571 0 -0.009262125 0.9999571 -4.37082e-07 -0.009262106 0.999957 4.195987e-07 -0.009261688 0.9999571 0 -0.009261688 0.9999571 0 -0.009262106 0.999957 -4.195987e-07 -0.009262125 0.9999571 4.37082e-07 0 0 -1 0 0 -1 0 0 -1 0 0 -1 0 0 -1 0 0 -1 0 0 -1 0 0 -1 0 -0 -1 0 0 -1 0 0 -1 0 -0 -1 0 -0 -1 0 -0 -1 0 -0 -1 0 0 -1 0 0 -1 0 0 -1 0 0 -1 0 0 -1 0 0 -1 0 0 -1 0 0 -1 0 0 -1 0 0 -1 0 0 -1 0 0 1 0 0 1 0 -1 0 0 -1 0 0 -1 0 0 -1 0 0 -1 0 0 -1 0 0 -1 0 0 -1 0 0 -0.02454092 -0.9996988 0 -0.02454092 -0.9996988 0 -0.07356685 -0.9972903 0 -0.07356685 -0.9972903 0 -0.1224061 -0.9924801 0 -0.1224061 -0.9924801 0 -0.1709657 -0.985277 0 -0.1709657 -0.985277 0 -0.2191024 -0.9757019 0 -0.2191024 -0.9757019 0 -0.2667107 -0.9637766 0 -0.2667107 -0.9637766 0 -0.3136795 -0.9495289 0 -0.3136795 -0.9495289 0 -0.3598995 -0.9329911 0 -0.3598995 -0.9329911 0 -0.4052395 -0.9142106 0 -0.4052395 -0.9142106 0 -0.4496083 -0.8932258 0 -0.4496083 -0.8932258 0 -0.4929007 -0.8700855 0 -0.4929007 -0.8700855 0 -0.5349959 -0.8448546 0 -0.5349959 -0.8448546 0 -0.5758114 -0.8175826 0 -0.5758114 -0.8175826 0 -0.6152284 -0.7883489 0 -0.6152284 -0.7883489 0 -0.6531727 -0.757209 0 -0.6531727 -0.757209 0 -0.6895404 -0.7242472 0 -0.6895404 -0.7242472 0 -0.7242501 -0.6895373 0 -0.7242501 -0.6895373 0 -0.7572076 -0.6531743 0 -0.7572076 -0.6531743 0 -0.7883471 -0.6152307 0 -0.7883471 -0.6152307 0 -0.8175834 -0.5758102 0 -0.8175834 -0.5758102 0 -0.8448541 -0.5349967 0 -0.8448541 -0.5349967 0 -0.8700869 -0.4928984 0 -0.8700869 -0.4928984 0 -0.8932239 -0.449612 0 -0.8932239 -0.449612 0 -0.91421 -0.4052409 0 -0.9329928 -0.3598951 0 -0.91421 -0.4052409 0 -0.9329928 -0.3598951 0 -0.9495283 -0.3136815 0 -0.9495283 -0.3136815 0 -0.9637761 -0.2667128 0 -0.9637761 -0.2667128 0 -0.9757023 -0.2191001 0 -0.9852776 -0.1709621 0 -0.9757023 -0.2191001 0 -0.9852776 -0.1709621 0 -0.9924793 -0.122413 0 -0.9972905 -0.07356352 0 -0.9924793 -0.122413 0 -0.9972905 -0.07356352 0 -0.9996988 -0.02454092 0 -0.9996988 -0.02454092 0 0 -1 0 0 -1 0 0 -1 0 0 -1 0 0 -1 0 0 -1 0 0 -1 0 0 -1 0 0 -1 0 0 -1 0 1 0 0 1 -0 0 0 1 0 0 1 0 0 1 0 0 1 0 0 1 0 0 1 0 0 1 0 0 1 0 0 1 0 0 1 0 -1 0 0 -1 0 1 0 0 1 0 0 1 0 -0 1 0 -0 1 0 -0 1 0 -0 1 0 -0 1 0 -0 1 0 -0 1 0 -0 1 0 -0 1 0 -0 1 0 -0 1 0 -0 1 0 -0 1 0 -0 1 0 -0 1 0 -0 1 0 -0 1 0 -0 1 0 -0 1 -0 0 1 -0 0 1 -0 0 1 -0 0 1 -0 0 1 -0 0 1 -0 0 1 -0 0 1 -0 0 1 -0 0 1 -0 0 1 -0 0 1 -0 0 1 -0 0 1 -0 0 1 -0 0 1 0 -0 1 0 0 1 -0 0 1 0 0 1 -0 0 1 0 0 1 -0 0 1 0 0 1 -0 0 1 0 0 1 -0 0 1 0 0 1 -0 0 1 0 0 1 -0 0 1 0 0 1 -0 0 1 0 0 1 -0 0 1 0 0 1 -0 0 1 0 0 1 -0 0 1 0 0 1 -0 0 1 0 0 1 -0 0 1 0 0 1 -0 0 1 0 0 1 -0 0 1 0 0 1 -0 0 1 0 0 1 -0 0 1 -0 0 1 0 0 -1 0 0 -1 0 0 -1 0 0 -1 0 0 -1 0 0 -1 0 0 -1 0 0 -1 0 0 -1 0 0 -1 0 0 -1 0 0 -1 0 0 -1 0 0 -1 0 0 -1 0 0 -1 0 0 -1 0 0 -1 0 0 -1 0 0 -1 0 0 -1 0 0 -1 0 0 -1 0 0 -1 0 0 -1 0 0 -1 0 0 -1 0 0 -1 0 0 -1 0 0 -1 0 0 -1 0 0 -1 0 0 -1 0 0 -1 0 0 0.814256 0.580506 0 0.814256 0.580506 0 -0.5805071 0.8142552 0 -0.5805071 0.8142552 0 -0.8142559 -0.5805061 0 -0.8142559 -0.5805061 -0 0.580507 -0.8142552 0 0.580507 -0.8142552 0 -0.5734623 -0.8192319 -0 -0.5734623 -0.8192319 0 0.8192316 -0.5734627 0 0.8192316 -0.5734627 0 0.5734624 0.8192319 0 0.5734624 0.8192319 0 -0.8192317 0.5734627 0 -0.8192317 0.5734627 0 0.579726 0.8148115 0 0.579726 0.8148115 0 -0.8148109 0.5797266 0 -0.8148109 0.5797266 0 -0.579726 -0.8148115 -0 -0.579726 -0.8148115 0 0.8148109 -0.5797266 0 0.8148109 -0.5797266 0 -0.8148024 -0.5797388 0 -0.8148024 -0.5797388 -0 0.5797389 -0.8148024 0 0.5797389 -0.8148024 0 0.8148023 0.5797389 0 0.8148023 0.5797389 0 -0.5797389 0.8148024 0 -0.5797389 0.8148024 0 -1 0 0 -1 0 0 1 -0 0 1 0 0 0 -0.02454092 -0.9996988 0 -0.02454092 -0.9996988 0 -0.07356685 -0.9972903 0 -0.07356685 -0.9972903 0 -0.1224061 -0.9924801 0 -0.1224061 -0.9924801 0 -0.1709657 -0.985277 0 -0.1709657 -0.985277 0 -0.2191024 -0.9757019 0 -0.2191024 -0.9757019 0 -0.2667107 -0.9637766 0 -0.2667107 -0.9637766 0 -0.3136795 -0.9495289 0 -0.3136795 -0.9495289 0 -0.3598995 -0.9329911 0 -0.3598995 -0.9329911 0 -0.4052395 -0.9142106 0 -0.4052395 -0.9142106 0 -0.4496083 -0.8932258 0 -0.4496083 -0.8932258 0 -0.4929007 -0.8700855 0 -0.4929007 -0.8700855 0 -0.5349959 -0.8448546 0 -0.5349959 -0.8448546 0 -0.5758114 -0.8175826 0 -0.5758114 -0.8175826 0 -0.6152284 -0.7883489 0 -0.6152284 -0.7883489 0 -0.6531727 -0.757209 0 -0.6531727 -0.757209 0 -0.6895404 -0.7242472 0 -0.6895404 -0.7242472 0 -0.7242501 -0.6895373 0 -0.7242501 -0.6895373 0 -0.7572076 -0.6531743 0 -0.7572076 -0.6531743 0 -0.7883471 -0.6152307 0 -0.7883471 -0.6152307 0 -0.8175834 -0.5758102 0 -0.8175834 -0.5758102 0 -0.8448541 -0.5349967 0 -0.8448541 -0.5349967 0 -0.8700869 -0.4928984 0 -0.8700869 -0.4928984 0 -0.8932239 -0.449612 0 -0.8932239 -0.449612 0 -0.91421 -0.4052409 0 -0.9329928 -0.3598951 0 -0.91421 -0.4052409 0 -0.9329928 -0.3598951 0 -0.9495283 -0.3136815 0 -0.9495283 -0.3136815 0 -0.9637761 -0.2667128 0 -0.9637761 -0.2667128 0 -0.9757023 -0.2191001 0 -0.9852776 -0.1709621 0 -0.9757023 -0.2191001 0 -0.9852776 -0.1709621 0 -0.9924793 -0.122413 0 -0.9972905 -0.07356352 0 -0.9924793 -0.122413 0 -0.9972905 -0.07356352 0 -0.9996988 -0.02454092 0 -0.9996988 -0.02454092 0 1 0 0 1 -0 0 -1 0 0 -1 -0 0 0 -1 0 0 -1 0 0 -1 0 -0 -1 0 -0 -1 0 0 -1 0 0 -1 0 0 -1</float_array>
          <technique_common>
            <accessor count="392" source="#cubenormals-array0-array" stride="3">
              <param type="float" name="X"/>
              <param type="float" name="Y"/>
              <param type="float" name="Z"/>
            </accessor>
          </technique_common>
        </source>
        <vertices id="cubeverts-array0-vertices">
          <input semantic="POSITION" source="#cubeverts-array0"/>
        </vertices>
        <triangles count="392" material="ref_Body_shape001">
          <input offset="0" semantic="VERTEX" source="#cubeverts-array0-vertices"/>
          <input offset="1" semantic="NORMAL" source="#cubenormals-array0"/>
          <p>0 0 1 0 2 0 2 1 3 1 4 1 1 2 5 2 2 2 2 3 6 3 3 3 5 4 7 4 2 4 2 5 8 5 6 5 7 6 9 6 2 6 2 7 10 7 8 7 9 8 11 8 2 8 2 9 12 9 10 9 11 10 13 10 2 10 2 11 14 11 12 11 13 12 15 12 2 12 2 13 16 13 14 13 15 14 17 14 2 14 2 15 18 15 16 15 17 16 19 16 2 16 2 17 20 17 18 17 19 18 21 18 2 18 2 19 22 19 20 19 21 20 23 20 2 20 2 21 24 21 22 21 23 22 25 22 2 22 2 23 26 23 24 23 25 24 27 24 2 24 2 25 28 25 26 25 27 26 29 26 2 26 2 27 30 27 28 27 29 28 31 28 2 28 2 29 32 29 30 29 31 30 33 30 2 30 2 31 33 31 32 31 34 32 35 32 0 32 36 33 37 33 4 33 4 34 37 34 2 34 36 35 38 35 37 35 38 36 39 36 37 36 2 37 34 37 0 37 34 38 39 38 35 38 35 39 39 39 38 39 40 40 41 40 42 40 41 41 43 41 42 41 44 42 2 42 42 42 42 43 2 43 40 43 45 44 34 44 44 44 44 45 34 45 2 45 41 46 34 46 43 46 43 47 34 47 45 47 39 48 46 48 47 48 34 49 48 49 39 49 39 50 48 50 46 50 34 51 49 51 48 51 46 52 50 52 51 52 48 53 50 53 46 53 51 54 52 54 53 54 50 55 52 55 51 55 53 56 54 56 47 56 53 57 55 57 54 57 52 58 55 58 53 58 54 59 56 59 47 59 57 60 58 60 56 60 47 61 58 61 39 61 56 62 58 62 47 62 55 63 59 63 57 63 52 64 60 64 55 64 55 65 60 65 59 65 57 66 61 66 58 66 59 67 61 67 57 67 49 68 62 68 52 68 52 69 62 69 60 69 62 70 41 70 61 70 61 71 41 71 58 71 34 72 41 72 49 72 49 73 41 73 62 73 63 74 2 74 37 74 40 75 2 75 63 75 37 76 39 76 64 76 39 77 65 77 64 77 66 78 63 78 64 78 64 79 63 79 37 79 66 80 67 80 63 80 67 81 58 81 63 81 39 82 58 82 65 82 65 83 58 83 67 83 1 84 0 84 68 84 1 85 68 85 69 85 5 86 69 86 70 86 5 87 1 87 69 87 7 88 70 88 71 88 7 89 5 89 70 89 9 90 71 90 72 90 9 91 7 91 71 91 11 92 72 92 73 92 11 93 9 93 72 93 13 94 73 94 74 94 13 95 11 95 73 95 15 96 74 96 75 96 15 97 13 97 74 97 17 98 75 98 76 98 17 99 15 99 75 99 19 100 17 100 76 100 19 101 76 101 77 101 21 102 19 102 77 102 21 103 77 103 78 103 23 104 21 104 78 104 23 105 78 105 79 105 25 106 23 106 79 106 25 107 79 107 80 107 27 108 25 108 80 108 27 109 80 109 81 109 29 110 27 110 81 110 29 111 81 111 82 111 31 112 29 112 82 112 31 113 82 113 83 113 33 114 31 114 83 114 33 115 83 115 84 115 32 116 33 116 84 116 32 117 84 117 85 117 30 118 32 118 85 118 30 119 85 119 86 119 28 120 30 120 86 120 28 121 86 121 87 121 28 122 87 122 88 122 26 123 28 123 88 123 24 124 88 124 89 124 24 125 26 125 88 125 22 126 24 126 89 126 22 127 89 127 90 127 20 128 90 128 91 128 20 129 22 129 90 129 18 130 91 130 92 130 18 131 92 131 93 131 18 132 20 132 91 132 16 133 18 133 93 133 14 134 93 134 94 134 14 135 16 135 93 135 12 136 94 136 95 136 12 137 14 137 94 137 10 138 95 138 96 138 10 139 96 139 97 139 10 140 12 140 95 140 8 141 10 141 97 141 6 142 97 142 98 142 6 143 98 143 99 143 6 144 8 144 97 144 3 145 6 145 99 145 4 146 99 146 100 146 4 147 3 147 99 147 101 148 102 148 103 148 101 149 103 149 104 149 105 150 104 150 66 150 105 151 66 151 64 151 100 152 101 152 104 152 100 153 104 153 105 153 4 154 105 154 36 154 4 155 100 155 105 155 44 156 42 156 101 156 44 157 101 157 100 157 38 158 36 158 106 158 106 159 36 159 105 159 107 160 35 160 38 160 107 161 38 161 106 161 108 162 106 162 65 162 108 163 65 163 67 163 109 164 45 164 107 164 109 165 107 165 106 165 109 166 106 166 108 166 110 167 108 167 111 167 110 168 109 168 108 168 43 169 45 169 109 169 0 170 107 170 68 170 0 171 35 171 107 171 103 172 58 172 111 172 63 173 58 173 103 173 103 174 102 174 63 174 112 175 40 175 113 175 113 176 40 176 114 176 114 177 40 177 115 177 115 178 40 178 116 178 116 179 40 179 117 179 117 180 40 180 118 180 118 181 40 181 119 181 119 182 40 182 120 182 120 183 40 183 121 183 121 184 40 184 122 184 122 185 40 185 123 185 123 186 40 186 124 186 124 187 40 187 125 187 125 188 40 188 126 188 126 189 40 189 127 189 127 190 40 190 128 190 128 191 40 191 102 191 102 192 40 192 63 192 112 193 129 193 40 193 129 194 130 194 40 194 130 195 131 195 40 195 131 196 132 196 40 196 132 197 133 197 40 197 133 198 134 198 40 198 134 199 135 199 40 199 135 200 136 200 40 200 136 201 137 201 40 201 137 202 138 202 40 202 138 203 139 203 40 203 139 204 140 204 40 204 140 205 141 205 40 205 141 206 142 206 40 206 142 207 143 207 40 207 110 208 41 208 143 208 41 209 40 209 143 209 58 210 41 210 111 210 111 211 41 211 110 211 44 212 69 212 68 212 100 213 99 213 44 213 44 214 70 214 69 214 99 215 98 215 44 215 44 216 71 216 70 216 98 217 97 217 44 217 44 218 72 218 71 218 97 219 96 219 44 219 44 220 73 220 72 220 96 221 95 221 44 221 44 222 74 222 73 222 95 223 94 223 44 223 44 224 75 224 74 224 94 225 93 225 44 225 44 226 76 226 75 226 93 227 92 227 44 227 44 228 77 228 76 228 92 229 91 229 44 229 44 230 78 230 77 230 91 231 90 231 44 231 44 232 79 232 78 232 90 233 89 233 44 233 44 234 80 234 79 234 89 235 88 235 44 235 44 236 81 236 80 236 88 237 87 237 44 237 44 238 82 238 81 238 87 239 86 239 44 239 44 240 83 240 82 240 86 241 85 241 44 241 44 242 84 242 83 242 85 243 84 243 44 243 68 244 45 244 44 244 68 245 107 245 45 245 109 246 144 246 43 246 145 247 42 247 144 247 146 248 42 248 145 248 147 249 42 249 146 249 148 250 42 250 147 250 149 251 42 251 148 251 150 252 42 252 149 252 151 253 42 253 150 253 152 254 42 254 151 254 153 255 42 255 152 255 154 256 42 256 153 256 155 257 42 257 154 257 156 258 42 258 155 258 144 259 42 259 43 259 156 260 157 260 42 260 157 261 158 261 42 261 158 262 159 262 42 262 159 263 160 263 42 263 160 264 161 264 42 264 161 265 162 265 42 265 162 266 163 266 42 266 163 267 164 267 42 267 164 268 165 268 42 268 165 269 166 269 42 269 166 270 167 270 42 270 167 271 168 271 42 271 168 272 169 272 42 272 169 273 170 273 42 273 170 274 171 274 42 274 171 275 172 275 42 275 172 276 173 276 42 276 173 277 174 277 42 277 174 278 175 278 42 278 175 279 101 279 42 279 51 280 53 280 176 280 51 281 176 281 177 281 178 282 51 282 177 282 46 283 51 283 178 283 47 284 46 284 178 284 47 285 178 285 179 285 176 286 47 286 179 286 53 287 47 287 176 287 56 288 54 288 180 288 180 289 54 289 181 289 57 290 56 290 182 290 182 291 56 291 180 291 55 292 57 292 183 292 183 293 57 293 182 293 54 294 55 294 181 294 181 295 55 295 183 295 49 296 184 296 185 296 49 297 52 297 184 297 48 298 49 298 186 298 186 299 49 299 185 299 50 300 48 300 187 300 187 301 48 301 186 301 52 302 50 302 184 302 184 303 50 303 187 303 59 304 60 304 188 304 59 305 188 305 189 305 190 306 59 306 189 306 61 307 59 307 190 307 62 308 61 308 190 308 62 309 190 309 191 309 188 310 62 310 191 310 60 311 62 311 188 311 67 312 66 312 108 312 108 313 66 313 104 313 64 314 65 314 105 314 105 315 65 315 106 315 145 316 144 316 143 316 145 317 143 317 142 317 146 318 142 318 141 318 146 319 145 319 142 319 147 320 141 320 140 320 147 321 146 321 141 321 148 322 140 322 139 322 148 323 147 323 140 323 149 324 139 324 138 324 149 325 148 325 139 325 150 326 138 326 137 326 150 327 149 327 138 327 151 328 137 328 136 328 151 329 150 329 137 329 152 330 136 330 135 330 152 331 151 331 136 331 153 332 152 332 135 332 153 333 135 333 134 333 154 334 153 334 134 334 154 335 134 335 133 335 155 336 154 336 133 336 155 337 133 337 132 337 156 338 155 338 132 338 156 339 132 339 131 339 157 340 156 340 131 340 157 341 131 341 130 341 158 342 157 342 130 342 158 343 130 343 129 343 159 344 158 344 129 344 159 345 129 345 112 345 160 346 159 346 112 346 160 347 112 347 113 347 161 348 160 348 113 348 161 349 113 349 114 349 162 350 161 350 114 350 162 351 114 351 115 351 163 352 162 352 115 352 163 353 115 353 116 353 163 354 116 354 117 354 164 355 163 355 117 355 165 356 117 356 118 356 165 357 164 357 117 357 166 358 165 358 118 358 166 359 118 359 119 359 167 360 119 360 120 360 167 361 166 361 119 361 168 362 120 362 121 362 168 363 121 363 122 363 168 364 167 364 120 364 169 365 168 365 122 365 170 366 122 366 123 366 170 367 169 367 122 367 171 368 123 368 124 368 171 369 170 369 123 369 172 370 124 370 125 370 172 371 125 371 126 371 172 372 171 372 124 372 173 373 172 373 126 373 174 374 126 374 127 374 174 375 127 375 128 375 174 376 173 376 126 376 175 377 174 377 128 377 101 378 128 378 102 378 101 379 175 379 128 379 108 380 104 380 111 380 111 381 104 381 103 381 144 382 109 382 143 382 143 383 109 383 110 383 178 384 177 384 179 384 179 385 177 385 176 385 181 386 182 386 180 386 183 387 182 387 181 387 185 388 187 388 186 388 185 389 184 389 187 389 188 390 191 390 189 390 189 391 191 391 190 391</p>
        </triangles>
      </mesh>
    </geometry>
  </library_geometries>
  <library_materials>
    <material id="mat_Body_shape001" name="Body_shape001">
      <instance_effect url="#effect_Body_shape001"/>
    </material>
  </library_materials>
  <library_visual_scenes>
    <visual_scene id="myscene">
      <node id="node0" name="node0">
        <instance_geometry url="#geometry0">
          <bind_material>
            <technique_common>
              <instance_material symbol="ref_Body_shape001" target="#mat_Body_shape001"/>
            </technique_common>
          </bind_material>
        </instance_geometry>
      </node>
    </visual_scene>
  </library_visual_scenes>
  <scene>
    <instance_visual_scene url="#myscene"/>
  </scene>
</COLLADA>
